<?xml version="1.0" encoding="UTF-8"?>
<svg version="1.1" xmlns="http://www.w3.org/2000/svg" width="556" height="212">
<path d="M0 0 C8.27786103 4.02288573 16.30916963 8.34923234 24.25 13 C25.27351563 13.59039062 26.29703125 14.18078125 27.3515625 14.7890625 C48.1941375 26.95169624 48.1941375 26.95169624 51.55078125 38.515625 C52.98686702 46.45780369 51.16103389 52.75625302 47.15625 59.61328125 C41.05123829 66.37082138 31.88183344 70.4759117 24.0625 74.9375 C22.3442432 75.92361714 20.62598893 76.90973873 18.90788269 77.89611816 C17.12992267 78.91629716 15.35119691 79.935129 13.57226562 80.95361328 C7.81359039 84.25132459 2.06246699 87.5621302 -3.6875 90.875 C-4.7695874 91.49761719 -5.8516748 92.12023437 -6.96655273 92.76171875 C-13.63663456 96.60812404 -20.272552 100.50374814 -26.81518555 104.56396484 C-30.78854186 107 -30.78854186 107 -33 107 C-33 106.34 -33 105.68 -33 105 C-31.44291628 103.77119892 -29.82582798 102.61818749 -28.1875 101.5 C-17.98158025 94.22877348 -9.56004852 85.97926404 -2 76 C-1.5992627 75.47422363 -1.19852539 74.94844727 -0.78564453 74.40673828 C10.34077632 59.70039912 18.18122235 44.09339355 25 27 C24.36384766 27.99966797 24.36384766 27.99966797 23.71484375 29.01953125 C22.47295455 30.97107143 21.22932379 32.92150395 19.984375 34.87109375 C18.75255759 36.81338852 17.5316525 38.76270609 16.328125 40.72265625 C1.17143299 65.225975 -20.08726645 88.64719276 -49 96 C-57.00089838 97.53783501 -65.00678176 98.52567205 -72.28515625 94.25390625 C-77.9935773 90.07986717 -80.71846392 84.77942368 -82 78 C-83.40126806 65.48097876 -80.25631779 53.9877529 -77 42 C-75.89591797 42.52400391 -75.89591797 42.52400391 -74.76953125 43.05859375 C-73.79371094 43.51363281 -72.81789063 43.96867187 -71.8125 44.4375 C-70.84957031 44.88996094 -69.88664062 45.34242187 -68.89453125 45.80859375 C-57.80497989 50.37311894 -45.12024766 47.87241581 -34.33984375 43.5234375 C-20.48730818 36.92124971 -9.32583612 27.969938 -3.5859375 13.4140625 C-2.61027192 10.2905288 -1.75228902 7.18379461 -1 4 C-0.66804149 2.66632371 -0.3349681 1.33292358 0 0 Z M26 22 C27 24 27 24 27 24 Z " fill="#FF0000" transform="translate(142,62)"/>
<path d="M0 0 C25.08 0 50.16 0 76 0 C76 8.25 76 16.5 76 25 C60.16 25 44.32 25 28 25 C28 28.96 28 32.92 28 37 C42.85 37 57.7 37 73 37 C73 44.92 73 52.84 73 61 C58.15 61 43.3 61 28 61 C28 65.29 28 69.58 28 74 C44.5 74 61 74 78 74 C78 81.92 78 89.84 78 98 C52.26 98 26.52 98 0 98 C0 65.66 0 33.32 0 0 Z " fill="#FF0000" transform="translate(228,42)"/>
<path d="M0 0 C8.29125 -0.061875 16.5825 -0.12375 25.125 -0.1875 C27.71230957 -0.21481201 30.29961914 -0.24212402 32.96533203 -0.27026367 C65.72496416 -0.4743837 65.72496416 -0.4743837 77.8046875 10.6640625 C86.01810144 19.61300604 87.48009016 28.96711901 87.27734375 40.72265625 C87.04179839 46.08629352 85.71156879 50.3649121 83 55 C82.5875 55.71542969 82.175 56.43085937 81.75 57.16796875 C76.60923032 64.95214557 68.73053381 68.88407802 59.9609375 71.41333008 C54.14457784 72.56576348 48.27896809 72.30606579 42.375 72.1875 C41.08464844 72.17396484 39.79429687 72.16042969 38.46484375 72.14648438 C35.30971276 72.11142736 32.15479938 72.05763165 29 72 C29 80.58 29 89.16 29 98 C19.43 98 9.86 98 0 98 C0 65.66 0 33.32 0 0 Z M29 25 C29 32.59 29 40.18 29 48 C32.526875 48.061875 36.05375 48.12375 39.6875 48.1875 C40.79053467 48.21481201 41.89356934 48.24212402 43.0300293 48.27026367 C50.03826228 48.40170801 50.03826228 48.40170801 56 45 C58.86810119 40.88905497 59.4751491 37.72432954 58.65234375 32.8984375 C57.35086848 29.11091066 54.49768921 26.74884461 51 25 C49.3325394 24.91573906 47.66174813 24.89274857 45.9921875 24.90234375 C44.65969971 24.90609009 44.65969971 24.90609009 43.30029297 24.90991211 C42.16994629 24.91901611 41.03959961 24.92812012 39.875 24.9375 C36.28625 24.958125 32.6975 24.97875 29 25 Z " fill="#FF0000" transform="translate(320,42)"/>
<path d="M0 0 C1.8002531 1.40573919 3.59502062 2.81867638 5.375 4.25 C3.27808431 8.89080887 0.04671494 11.98327953 -3.5 15.5625 C-4.12519531 16.22056641 -4.75039063 16.87863281 -5.39453125 17.55664062 C-6.00425781 18.17345703 -6.61398437 18.79027344 -7.2421875 19.42578125 C-7.79503418 19.99208252 -8.34788086 20.55838379 -8.91748047 21.1418457 C-10.625 22.25 -10.625 22.25 -12.66064453 22.04760742 C-14.625 21.25 -14.625 21.25 -17.4375 19.3125 C-23.71275043 15.25204384 -30.30413434 14.37846837 -37.625 15.25 C-43.10859544 16.65278023 -48.20745497 18.57356628 -51.59765625 23.36328125 C-56.12638725 31.68030433 -58.31589083 39.85739742 -55.859375 49.14453125 C-53.56059679 55.95876664 -51.27751329 61.0634633 -44.75 64.5625 C-36.89104465 67.734566 -27.94025783 67.46297757 -20.0625 64.5 C-16.50383148 62.85843956 -13.50711827 60.93997705 -10.625 58.25 C-6.44957191 59.84299508 -3.89609384 62.93133032 -1 66.1875 C-0.51015625 66.72568359 -0.0203125 67.26386719 0.484375 67.81835938 C6.375 74.34472123 6.375 74.34472123 6.375 78.25 C4.48787787 79.90275374 2.6899611 81.28937647 0.625 82.6875 C-0.25103882 83.28691406 -0.25103882 83.28691406 -1.14477539 83.8984375 C-14.1851803 92.47141015 -30.67635212 94.24937312 -45.87109375 91.6015625 C-58.78619843 88.90848188 -69.96743907 83.2748366 -77.625 72.25 C-85.93033273 58.36452184 -87.69748588 43.32502251 -84.97265625 27.44921875 C-81.14578251 13.73488582 -72.77972395 2.57583468 -60.5 -4.5625 C-41.01712533 -14.41642507 -17.45197297 -13.25018994 0 0 Z " fill="#FF0000" transform="translate(545.625,50.75)"/>
<path d="M0 0 C4.26900837 1.97559064 8.3152375 4.33041947 12.375 6.69921875 C14.43357749 7.88023667 16.49217243 9.06122419 18.55078125 10.2421875 C26.20105716 14.65717514 33.80397081 19.14980727 41.375 23.69921875 C38.62114098 26.45307777 35.69985983 26.44336165 32 27.01171875 C15.40993737 29.90291758 1.47305313 37.97569827 -8.625 51.69921875 C-20.58324215 69.60483443 -28.30499486 88.89497102 -33.625 109.69921875 C-33.955 109.69921875 -34.285 109.69921875 -34.625 109.69921875 C-34.71779982 97.5813726 -34.78881588 85.4636114 -34.83224869 73.34548187 C-34.85309737 67.71814902 -34.88136568 62.09105983 -34.92675781 56.46386719 C-34.97031202 51.03033564 -34.99415756 45.59703802 -35.00450897 40.16334534 C-35.01188312 38.09335143 -35.02628312 36.02336991 -35.04792023 33.95347595 C-35.07708117 31.04748152 -35.08095066 28.14244602 -35.07910156 25.23632812 C-35.09348267 24.38612091 -35.10786377 23.5359137 -35.12268066 22.65994263 C-35.07702289 16.00118213 -33.29098347 10.79735935 -28.9140625 5.7109375 C-28.36492188 5.27394531 -27.81578125 4.83695312 -27.25 4.38671875 C-26.70601562 3.93683594 -26.16203125 3.48695313 -25.6015625 3.0234375 C-17.46981616 -2.42451113 -9.27920599 -3.32971508 0 0 Z " fill="#FF0000" transform="translate(39.625,2.30078125)"/>
<path d="M0 0 C9.57 0 19.14 0 29 0 C29 32.34 29 64.68 29 98 C19.43 98 9.86 98 0 98 C0 65.66 0 33.32 0 0 Z " fill="#FF0000" transform="translate(418,42)"/>
<path d="M0 0 C2.49389537 1.24694768 2.64573541 2.11618835 3.75 4.625 C8.9220492 15.11847166 17.65849315 21.16757829 28.5234375 25.359375 C45.76520304 30.80414307 64.76658088 30.95073082 81.75 24.25 C85 23 85 23 88 24 C75.30731705 31.4228139 62.60302843 38.82545766 49.875 46.1875 C48.78010254 46.82244385 47.68520508 47.4573877 46.55712891 48.11157227 C45.52507324 48.70768311 44.49301758 49.30379395 43.4296875 49.91796875 C42.52460449 50.44156982 41.61952148 50.9651709 40.68701172 51.50463867 C32.08429394 56.29217696 24.31109444 57.81069161 14.4921875 55.37890625 C8.57934827 52.77030071 3.88344221 47.61163692 0.921875 41.93261719 C-0.34486355 37.90293938 -0.24769359 34.17839138 -0.1953125 29.98046875 C-0.1924826 29.12189774 -0.18965271 28.26332672 -0.18673706 27.3787384 C-0.1755807 24.64818125 -0.15048459 21.9179573 -0.125 19.1875 C-0.11496432 17.33138496 -0.1058395 15.47526476 -0.09765625 13.61914062 C-0.07565626 9.07929954 -0.04115781 4.53970619 0 0 Z " fill="#FF0000" transform="translate(5,155)"/>
<path d="M0 0 C3.70950303 5.56425454 2.72869812 12.81090591 1.61328125 19.22314453 C-1.61610525 34.30760887 -7.74480794 47.10915368 -20 57 C-25.7329511 59.893433 -32.05899624 59.9411212 -38.125 58 C-38.74375 57.67 -39.3625 57.34 -40 57 C-38.70764162 50.51223104 -36.9159717 44.56587542 -34.4375 38.4375 C-34.08961426 37.57487549 -33.74172852 36.71225098 -33.38330078 35.82348633 C-17.39465975 -2.78314556 -17.39465975 -2.78314556 0 0 Z " fill="#FF0000" transform="translate(107,42)"/>
<path d="M0 0 C5 0 5 0 7.203125 2.1171875 C7.87859375 3.02726563 8.5540625 3.93734375 9.25 4.875 C9.93578125 5.77992188 10.6215625 6.68484375 11.328125 7.6171875 C13 10 13 10 14 12 C14.47050781 11.38511719 14.94101562 10.77023438 15.42578125 10.13671875 C16.04839844 9.32847656 16.67101562 8.52023438 17.3125 7.6875 C17.92738281 6.88699219 18.54226563 6.08648437 19.17578125 5.26171875 C19.77777344 4.51535156 20.37976563 3.76898438 21 3 C21.46792969 2.40832031 21.93585937 1.81664062 22.41796875 1.20703125 C24 0 24 0 29 0 C29 9.57 29 19.14 29 29 C27.35 29 25.7 29 24 29 C23.67 23.06 23.34 17.12 23 11 C20.69 14.3 18.38 17.6 16 21 C10.07470391 19.51867598 9.15897112 16.09743067 6 11 C5.67 16.94 5.34 22.88 5 29 C3.35 29 1.7 29 0 29 C0 19.43 0 9.86 0 0 Z " fill="#FF0000" transform="translate(520,150)"/>
<path d="M0 0 C2.35125 -0.061875 4.7025 -0.12375 7.125 -0.1875 C7.85348145 -0.21481201 8.58196289 -0.24212402 9.33251953 -0.27026367 C14.86285014 -0.34001154 18.87956482 0.95024599 22.875 4.8125 C24.3783854 7.73574938 24.33847401 9.75064948 24 13 C22.8128324 16.46257217 21.01330093 17.99113271 18 20 C18.5053125 20.48210937 19.010625 20.96421875 19.53125 21.4609375 C20.1809375 22.09257812 20.830625 22.72421875 21.5 23.375 C22.1496875 24.00148437 22.799375 24.62796875 23.46875 25.2734375 C25 27 25 27 25 29 C21.9375 29.5 21.9375 29.5 18 29 C15.98276227 27.09364638 14.39861688 25.09516042 12.7734375 22.84765625 C10.59642229 20.57953247 9.07310246 20.33038474 6 20 C6 22.97 6 25.94 6 29 C4.02 29 2.04 29 0 29 C0 19.43 0 9.86 0 0 Z M6 6 C6 8.64 6 11.28 6 14 C7.81242052 14.02687279 9.62495233 14.04633715 11.4375 14.0625 C12.95150391 14.07990234 12.95150391 14.07990234 14.49609375 14.09765625 C16.94021067 14.28612676 16.94021067 14.28612676 18 13 C18.2500773 10.54190002 18.2500773 10.54190002 18 8 C16.18806994 5.75675164 16.18806994 5.75675164 13.6171875 5.8046875 C12.71226562 5.82789063 11.80734375 5.85109375 10.875 5.875 C9.96492188 5.89304688 9.05484375 5.91109375 8.1171875 5.9296875 C7.41851562 5.95289063 6.71984375 5.97609375 6 6 Z " fill="#FF0000" transform="translate(341,150)"/>
<path d="M0 0 C6.93 0 13.86 0 21 0 C21 1.98 21 3.96 21 6 C15.72 6 10.44 6 5 6 C5 7.98 5 9.96 5 12 C10.28 12 15.56 12 21 12 C21 13.98 21 15.96 21 18 C15.72 18 10.44 18 5 18 C5 19.98 5 21.96 5 24 C10.28 24 15.56 24 21 24 C21 25.65 21 27.3 21 29 C14.07 29 7.14 29 0 29 C0 19.43 0 9.86 0 0 Z " fill="#FF0000" transform="translate(401,150)"/>
<path d="M0 0 C1.2065625 0.0309375 1.2065625 0.0309375 2.4375 0.0625 C15.4375 25.71634615 15.4375 25.71634615 15.4375 29.0625 C13.4575 29.0625 11.4775 29.0625 9.4375 29.0625 C8.7775 27.4125 8.1175 25.7625 7.4375 24.0625 C4.97651884 24.12237789 2.52171588 24.20928474 0.0625 24.3125 C-0.63617188 24.32667969 -1.33484375 24.34085938 -2.0546875 24.35546875 C-4.33967646 24.42285782 -4.33967646 24.42285782 -7.5625 25.0625 C-9.12733494 26.97638341 -9.12733494 26.97638341 -9.5625 29.0625 C-11.5425 29.0625 -13.5225 29.0625 -15.5625 29.0625 C-13.76906316 23.04680044 -11.1088131 17.44363311 -8.5 11.75 C-8.04044922 10.73615234 -7.58089844 9.72230469 -7.10742188 8.67773438 C-3.18468899 0.07767534 -3.18468899 0.07767534 0 0 Z M-0.5625 7.0625 C-1.23369549 8.5187545 -1.89931807 9.97757867 -2.5625 11.4375 C-2.93375 12.24960938 -3.305 13.06171875 -3.6875 13.8984375 C-4.68745013 15.98248433 -4.68745013 15.98248433 -4.5625 18.0625 C-1.5925 18.0625 1.3775 18.0625 4.4375 18.0625 C3.1175 14.4325 1.7975 10.8025 0.4375 7.0625 C0.1075 7.0625 -0.2225 7.0625 -0.5625 7.0625 Z " fill="#FF0000" transform="translate(470.5625,149.9375)"/>
<path d="M0 0 C2.53144926 1.07061293 3.91228229 2.13204205 6 4 C6 4.66 6 5.32 6 6 C4.35 6.66 2.7 7.32 1 8 C0.34 7.34 -0.32 6.68 -1 6 C-3.68839385 5.73008094 -6.29141936 5.91262643 -9 6 C-9 7.32 -9 8.64 -9 10 C-8.26394531 10.15855469 -7.52789062 10.31710938 -6.76953125 10.48046875 C3.60098161 12.96007618 3.60098161 12.96007618 7 18 C7.625 21 7.625 21 7 24 C4.44975635 27.10164769 2.82300753 28.72566416 -1 30 C-6.67475291 30.37211494 -10.03463692 30.07379619 -15 27 C-15.66 26.34 -16.32 25.68 -17 25 C-16.8125 22.9375 -16.8125 22.9375 -16 21 C-15.01 20.67 -14.02 20.34 -13 20 C-12.649375 20.474375 -12.29875 20.94875 -11.9375 21.4375 C-9.11492366 23.71377124 -6.55725845 23.74591011 -3 24 C-2.01 23.67 -1.02 23.34 0 23 C0 21.68 0 20.36 0 19 C-1.35544922 18.61908203 -1.35544922 18.61908203 -2.73828125 18.23046875 C-3.91777344 17.88628906 -5.09726563 17.54210937 -6.3125 17.1875 C-7.48425781 16.85105469 -8.65601563 16.51460937 -9.86328125 16.16796875 C-12.79238357 15.07730674 -14.24256605 14.53168807 -16 12 C-16.71578947 6.98947368 -16.71578947 6.98947368 -16 4 C-11.52289197 -0.7127453 -6.14135265 -1.01362131 0 0 Z " fill="#FF0000" transform="translate(244,150)"/>
<path d="M0 0 C7.92 0 15.84 0 24 0 C24 1.98 24 3.96 24 6 C21.03 6 18.06 6 15 6 C15 13.59 15 21.18 15 29 C13.02 29 11.04 29 9 29 C9 21.41 9 13.82 9 6 C6.03 6 3.06 6 0 6 C0 4.02 0 2.04 0 0 Z " fill="#FF0000" transform="translate(283,150)"/>
</svg>
